<?xml version="1.0" encoding="UTF-8"?>
<svg width="334px" height="90px" viewBox="0 0 334 90" version="1.1" xmlns="http://www.w3.org/2000/svg" xmlns:xlink="http://www.w3.org/1999/xlink">
    <!-- Generator: Sketch 42 (36781) - http://www.bohemiancoding.com/sketch -->
    <title>Group 2</title>
    <desc>Created with Sketch.</desc>
    <defs></defs>
    <g id="Symbols" stroke="none" stroke-width="1" fill="none" fill-rule="evenodd">
        <g id="Artboard-2" transform="translate(-101.000000, -68.000000)" fill="#FFFFFF">
            <g id="Group-2" transform="translate(101.000000, 68.000000)">
                <g id="Group">
                    <path d="M10.1178537,21.6573264 C10.618396,25.3172985 11.1189383,28.9774783 11.6194805,32.6374504 C12.4029113,38.3657772 13.6944744,45.8425566 18.7856458,49.5833352 C19.6956481,50.2520139 20.6916042,50.7765289 21.7388453,51.1797303 C22.301545,51.5081494 22.8888617,51.8068633 23.5077699,52.0652778 C23.7724008,52.1755817 24.0392883,52.2781997 24.3082272,52.3739626 C24.1787837,53.0902112 24.0495453,53.8064598 23.9201018,54.5227084 C23.0511276,59.3326666 22.178666,64.2126294 22.599819,69.0838676 C22.7594181,70.9291217 23.1046692,70.5435772 23.0230234,72.3940245 C23.0045608,72.8134288 22.9432238,73.2756252 22.6305901,73.5514889 C22.4570414,73.7045849 22.2274894,73.7779132 22.0465557,73.9218692 C21.7876687,74.1686509 21.9013164,74.5379925 22.1893333,74.6092435 C23.0552304,74.8238272 23.9529243,74.9947879 24.8063078,74.7613009 C26.5007665,74.2976504 27.3966141,72.4634059 28.0274205,70.8048999 C29.3068804,67.4407335 30.3598654,66.21368 31.1853499,62.706804 C31.7589221,64.9575445 33.0677171,68.2552378 35.7874669,72.0622818 C36.030353,72.4025414 36.0190702,72.9160468 35.8221356,73.2853884 C35.7130009,73.4906244 35.5236565,73.6412277 35.4040597,73.8404395 C35.2493839,74.1715591 35.4863209,74.4684034 35.775979,74.4330895 C36.6611593,74.3252783 37.5611097,74.1655349 38.2791007,73.6426818 C39.7042102,72.6050769 39.9054528,72.7939023 39.9198126,71.0165755 C39.9704823,64.6521833 39.2748516,58.2823902 37.8571271,52.0816883 C39.6032812,51.4861301 41.2821492,50.7194035 42.9017317,49.8294937 C44.140779,49.4053117 45.3289514,48.8726953 46.4217337,48.1714031 C46.5195856,48.3666681 46.6205146,48.5598558 46.7251362,48.7495121 C47.7184254,50.5486505 48.978397,52.204456 49.7661356,54.1051737 C51.1781162,57.5125477 50.9432305,61.3916735 50.2238036,65.0142545 C49.8442941,66.9255663 49.2333863,68.9685781 47.6611913,70.0938445 C46.9825872,70.5793065 46.0395574,71.0818023 46.1419224,71.916664 C47.6480623,72.3690971 49.2395405,72.5290482 50.8043506,72.3850922 C51.3887952,72.3314982 51.9730347,72.2334502 52.5308112,72.0523108 C51.92216,72.6025841 51.1165741,73.203751 51.3126882,73.9904196 C52.8627281,74.2509114 54.4613863,74.2106121 55.9966561,73.872222 C56.7415205,73.7079086 57.4781792,73.4710979 58.1356538,73.0805679 C59.5952269,72.2135083 60.5331282,70.6773545 61.2759412,69.137877 C62.3746725,66.8611704 63.1833355,64.4157881 63.4003739,61.8914688 C63.6172072,59.3669418 63.2190299,56.755792 62.0298317,54.5262398 C61.4648754,53.4670311 60.7058563,52.4244407 60.7019587,51.2206528 C60.6999073,50.5831334 60.9150994,49.9674256 61.1343944,49.3697901 C61.6546301,47.9501721 62.2124065,46.5446796 62.8066979,45.15539 C63.0986125,44.4730012 63.4026304,43.7708782 63.581923,43.0527601 C64.9729792,39.707497 64.6677305,35.6042318 62.3921094,32.7834837 C63.7899353,32.6422282 64.7760446,34.1144015 65.3233588,35.4243387 C65.9121114,36.8339858 66.6305127,38.5153419 68.230812,38.6133899 C69.0099348,38.6611675 69.744337,38.2693911 70.2264166,37.6480746 C71.1626768,36.4411708 71.1013399,34.8786354 70.7657304,33.4702348 C69.873165,29.7240553 67.0293054,26.5148545 63.4477613,25.21198 C61.4414894,24.4820214 59.2825931,24.329133 57.1554936,24.1826843 C52.9821198,23.8956032 48.7381777,23.6132999 44.6589633,24.5518182 C42.1201472,25.1359513 39.7103644,26.1793726 37.2277568,26.9737272 C33.9077665,28.0358441 30.4486912,28.6519674 26.9699223,28.8009089 C26.0541761,28.8399619 25.1035561,28.8403774 24.2655581,28.463973 C22.4256549,27.6378359 21.7743345,25.3760857 21.3343086,23.3872911 C20.5416466,19.805425 19.7491897,16.2235589 18.9565277,12.6416928 C18.3626466,9.9580456 17.627629,7.05690647 15.7803408,5.14247871 C15.5782776,4.32008075 15.3132364,3.51804021 14.9183413,2.77270961 C14.2323522,1.47793658 13.094234,0.357447932 11.6791764,0.0325602333 C11.5175258,-0.00441547661 11.3355664,-0.0276810918 11.1966864,0.0641349968 C11.2016098,1.05562412 11.2356631,2.04669778 11.2924869,3.03652507 C9.27924025,2.80199936 7.10598415,3.15493043 5.08494214,3.53839763 C4.56798865,3.63644558 4.02600803,3.74633406 3.62434337,4.08991735 C2.65136304,4.92270173 3.07333659,6.57539133 3.9117449,7.54693849 C2.57710226,7.89156042 1.11116983,8.33069891 0.391127462,9.5195303 C-0.0402825413,10.2314166 -0.12090267,11.1495775 0.179627836,11.9273137 C0.728172937,13.2910527 2.06302072,14.2952133 3.5109008,14.4333529 C4.21350625,14.5004492 4.92636871,14.3787202 5.62589706,14.4736522 C7.12239538,14.6768109 8.34687769,15.86128 9.0207635,17.2293813 C9.69444417,18.5976903 9.91086717,20.1429841 10.1178537,21.6573264 Z" id="Fill-3"></path>
                </g>
                <text id="Alpacka" font-family="BlendaScript, Blenda Script" font-size="72" font-weight="normal">
                    <tspan x="91" y="72">Alpacka</tspan>
                </text>
            </g>
        </g>
    </g>
</svg>