<?xml version="1.0" standalone="no"?>
<!DOCTYPE svg PUBLIC "-//W3C//DTD SVG 20010904//EN"
 "http://www.w3.org/TR/2001/REC-SVG-20010904/DTD/svg10.dtd">
<svg version="1.0" xmlns="http://www.w3.org/2000/svg"
 width="16.000000pt" height="16.000000pt" viewBox="0 0 16.000000 16.000000"
 preserveAspectRatio="xMidYMid meet">
<metadata>
Created by potrace 1.11, written by Peter Selinger 2001-2013
</metadata>
<g transform="translate(0.000000,16.000000) scale(0.003077,-0.003077)"
fill="#000000" stroke="none">
<path d="M268 5181 c-31 -10 -72 -28 -92 -40 -55 -34 -123 -116 -148 -179
l-23 -57 0 -2305 0 -2305 24 -60 c33 -82 124 -173 206 -206 l60 -24 2305 0
2305 0 60 24 c82 33 173 124 206 206 l24 60 0 2305 0 2305 -24 60 c-33 82
-124 173 -206 206 l-60 24 -2290 2 c-2188 2 -2293 1 -2347 -16z m1067 -650
c72 -33 149 -135 171 -226 4 -16 19 -46 34 -65 81 -107 105 -182 210 -650 95
-425 115 -492 163 -547 48 -54 97 -73 197 -73 199 0 394 39 705 141 132 43
269 85 305 93 129 30 306 38 523 26 408 -22 508 -47 664 -164 182 -137 293
-426 216 -559 -39 -66 -112 -93 -171 -63 -40 21 -56 42 -105 141 -48 98 -82
140 -122 155 -44 17 -45 12 -10 -47 51 -88 70 -162 69 -278 0 -121 -9 -151
-116 -424 -101 -257 -101 -260 -25 -414 62 -125 74 -163 87 -275 17 -156 -22
-349 -110 -537 -98 -211 -191 -273 -422 -283 l-128 -5 0 24 c0 13 15 38 32 57
l33 33 -30 -8 c-44 -12 -233 -8 -282 5 -34 10 -40 16 -36 33 3 12 34 43 69 71
52 40 70 63 99 121 53 111 78 249 79 442 1 168 -9 225 -55 332 -20 48 -153
277 -173 300 -9 10 -27 5 -81 -22 -83 -41 -316 -147 -363 -165 -27 -11 -32
-17 -28 -34 14 -49 56 -290 70 -401 39 -304 50 -661 21 -702 -24 -34 -107 -81
-164 -94 -68 -14 -79 -4 -52 46 24 44 20 59 -41 148 -59 87 -150 268 -179 358
l-24 76 -36 -101 c-54 -150 -176 -423 -210 -471 -17 -23 -48 -52 -71 -65 -34
-19 -50 -22 -110 -18 -83 6 -101 22 -62 54 33 27 45 82 32 148 -16 81 -21 370
-8 491 6 61 27 201 46 312 37 221 39 233 24 233 -23 0 -257 123 -306 161 -150
116 -263 334 -327 635 -15 67 -49 287 -77 490 -77 565 -78 570 -130 661 -53
93 -126 132 -248 133 -85 0 -132 20 -181 76 -56 63 -64 110 -32 181 21 45 73
82 149 104 23 7 42 13 42 13 0 1 -9 19 -20 41 -26 51 -26 105 0 138 15 19 38
30 88 41 89 20 277 39 313 32 l29 -5 0 84 c0 95 1 96 65 66z"/>
</g>
</svg>
